# xmcd
#
# Track frame offsets:
#	150
#	18107
#	29658
#	44748
#	57180
#	70640
#	88607
#	96969
#	111757
#
# Disc length: 1859 seconds
#
# Revision: 0
# Processed by: cddbd v1.5.2PL0 Copyright (c) Steve Scherf et al.
# Submitted via: EasyCDDAExtractor 10.0.2.1
#
DISCID=72074109
DTITLE=Miracle - The Ministry
DYEAR=2001
DGENRE=Gospel
TTITLE0=God Has A Miracle For You
TTITLE1=Just A Little Talk
TTITLE2=Through It All
TTITLE3=No Tears
TTITLE4=I Just Came To Talk
TTITLE5=You're My Hero
TTITLE6=I Feel Like Traveling On
TTITLE7=Oh How I Love Jesus
TTITLE8=Give Up
EXTD=
EXTT0=
EXTT1=
EXTT2=
EXTT3=
EXTT4=
EXTT5=
EXTT6=
EXTT7=
EXTT8=
PLAYORDER=
